<mxfile host="Electron" agent="Mozilla/5.0 (Windows NT 10.0; Win64; x64) AppleWebKit/537.36 (KHTML, like Gecko) draw.io/24.7.17 Chrome/128.0.6613.36 Electron/32.0.1 Safari/537.36" version="24.7.17">
  <diagram name="Page-1" id="1K5SyUrvCXwD01RJ7yWf">
    <mxGraphModel dx="1102" dy="570" grid="1" gridSize="10" guides="1" tooltips="1" connect="1" arrows="1" fold="1" page="1" pageScale="1" pageWidth="850" pageHeight="1100" math="0" shadow="0">
      <root>
        <mxCell id="0" />
        <mxCell id="1" parent="0" />
        <mxCell id="PQwajwSMD7F9-vBoZum1-1" value="ContactUs" style="rounded=1;arcSize=10;whiteSpace=wrap;html=1;align=center;" parent="1" vertex="1">
          <mxGeometry x="390" y="250" width="100" height="40" as="geometry" />
        </mxCell>
        <mxCell id="PQwajwSMD7F9-vBoZum1-2" value="Title" style="ellipse;whiteSpace=wrap;html=1;align=center;" parent="1" vertex="1">
          <mxGeometry x="280" y="160" width="100" height="40" as="geometry" />
        </mxCell>
        <mxCell id="PQwajwSMD7F9-vBoZum1-3" value="Content" style="ellipse;whiteSpace=wrap;html=1;align=center;" parent="1" vertex="1">
          <mxGeometry x="390" y="160" width="100" height="40" as="geometry" />
        </mxCell>
        <mxCell id="PQwajwSMD7F9-vBoZum1-4" value="Fullname" style="ellipse;whiteSpace=wrap;html=1;align=center;" parent="1" vertex="1">
          <mxGeometry x="500" y="160" width="100" height="40" as="geometry" />
        </mxCell>
        <mxCell id="PQwajwSMD7F9-vBoZum1-5" value="Mobile" style="ellipse;whiteSpace=wrap;html=1;align=center;" parent="1" vertex="1">
          <mxGeometry x="610" y="160" width="100" height="40" as="geometry" />
        </mxCell>
        <mxCell id="PQwajwSMD7F9-vBoZum1-6" value="Email" style="ellipse;whiteSpace=wrap;html=1;align=center;" parent="1" vertex="1">
          <mxGeometry x="170" y="160" width="100" height="40" as="geometry" />
        </mxCell>
        <mxCell id="PQwajwSMD7F9-vBoZum1-7" value="" style="endArrow=none;html=1;rounded=0;" parent="1" source="PQwajwSMD7F9-vBoZum1-6" target="PQwajwSMD7F9-vBoZum1-1" edge="1">
          <mxGeometry relative="1" as="geometry">
            <mxPoint x="250" y="250" as="sourcePoint" />
            <mxPoint x="410" y="250" as="targetPoint" />
          </mxGeometry>
        </mxCell>
        <mxCell id="PQwajwSMD7F9-vBoZum1-9" value="" style="endArrow=none;html=1;rounded=0;" parent="1" source="PQwajwSMD7F9-vBoZum1-2" target="PQwajwSMD7F9-vBoZum1-1" edge="1">
          <mxGeometry relative="1" as="geometry">
            <mxPoint x="340" y="290" as="sourcePoint" />
            <mxPoint x="500" y="290" as="targetPoint" />
          </mxGeometry>
        </mxCell>
        <mxCell id="PQwajwSMD7F9-vBoZum1-10" value="" style="endArrow=none;html=1;rounded=0;" parent="1" source="PQwajwSMD7F9-vBoZum1-3" target="PQwajwSMD7F9-vBoZum1-1" edge="1">
          <mxGeometry relative="1" as="geometry">
            <mxPoint x="360" y="320" as="sourcePoint" />
            <mxPoint x="520" y="320" as="targetPoint" />
          </mxGeometry>
        </mxCell>
        <mxCell id="PQwajwSMD7F9-vBoZum1-11" value="" style="endArrow=none;html=1;rounded=0;" parent="1" source="PQwajwSMD7F9-vBoZum1-4" target="PQwajwSMD7F9-vBoZum1-1" edge="1">
          <mxGeometry relative="1" as="geometry">
            <mxPoint x="411" y="210" as="sourcePoint" />
            <mxPoint x="439" y="260" as="targetPoint" />
          </mxGeometry>
        </mxCell>
        <mxCell id="PQwajwSMD7F9-vBoZum1-12" value="" style="endArrow=none;html=1;rounded=0;" parent="1" source="PQwajwSMD7F9-vBoZum1-5" target="PQwajwSMD7F9-vBoZum1-1" edge="1">
          <mxGeometry relative="1" as="geometry">
            <mxPoint x="521" y="209" as="sourcePoint" />
            <mxPoint x="470" y="260" as="targetPoint" />
          </mxGeometry>
        </mxCell>
        <mxCell id="GlftsTVwdqM5vV0qCx0d-1" value="Store" style="ellipse;whiteSpace=wrap;html=1;align=center;" vertex="1" parent="1">
          <mxGeometry x="720" y="160" width="100" height="40" as="geometry" />
        </mxCell>
        <mxCell id="GlftsTVwdqM5vV0qCx0d-2" value="" style="endArrow=none;html=1;rounded=0;" edge="1" parent="1" source="PQwajwSMD7F9-vBoZum1-1" target="GlftsTVwdqM5vV0qCx0d-1">
          <mxGeometry width="50" height="50" relative="1" as="geometry">
            <mxPoint x="620" y="370" as="sourcePoint" />
            <mxPoint x="670" y="320" as="targetPoint" />
          </mxGeometry>
        </mxCell>
      </root>
    </mxGraphModel>
  </diagram>
</mxfile>
